<svg xmlns="http://www.w3.org/2000/svg" viewBox="0 0 4680 3120"><g data-name="2" fill="#000000" class="color000 svgShape"><rect width="4680" height="3120" fill="#ffffff" data-name="2" opacity="0" class="colorfff svgShape"/><path fill="#2e6857" d="M1295.41,2036.65a69.65,69.65,0,0,0-9.79-10.9c-30.31-27.11-67.61-10.82-96.81,9.25-65.32,44.9-135.27,116.44-160.21,213.34-27.42,106.57-29.93,227.82-32.57,343.21-.37,15.93-4.39,49.11.3,71.15a252.43,252.43,0,0,1,34.15-7c4.66-14.64,8.18-31.2,10.86-40,31.26-102.64,75.67-197.15,135.34-271.31,52.91-65.77,120.19-103,137.88-209.06C1320,2102.5,1314,2062.13,1295.41,2036.65Z" class="color2e6857 svgShape"/><path fill="#6fc183" d="M971,2666.72l12.74-2.38c-.06-.25-.1-.51-.18-.75-1.6-5.54-3.79-10.75-5.57-16.77-3.17-10.76-6.37-21.33-10.29-31.83-8.54-22.91-18.3-45.08-27.67-67.48-15-35.82-31-71.23-51.06-102.83-20.42-32.19-45.52-60.38-74.24-75-69-35.13-172.78,12.09-184.41,112-3.84,32.95,5.56,72.06,27.08,93.35a69.1,69.1,0,0,0,34.73,18.34,77.83,77.83,0,0,0,48-4.78c36.61-16.17,77.82-40.37,120-33.3a67.59,67.59,0,0,1,12.69,3.46c22.65,8.54,42.78,28.52,60.68,49.9C948.12,2626.06,962.5,2643.7,971,2666.72Z" class="color6fc183 svgShape"/><path fill="#40947e" d="M914.89,2451.47c13.21,34,24.48,69.14,35.2,104.41,5.31,17.49,29.37,78.81,34.3,109.93l1.34-.25c3-.8,9.46-2.54,10.6-2.86,6-30.33-2.69-61.85-4.16-94.6-5.67-127.15-.82-268.63-46.08-390.24-26.16-70.31-67.5-135-120.23-167.68s-117.11-27.62-153.28,23.51c-6.87,9.72-12.75,21.15-15.14,34.63-5.9,33.33,10.59,70.08,29.63,97.3,16.29,23.28,35.08,43.4,55.41,59.32,21.24,16.63,44.08,28.68,64.82,46.59,24.53,21.17,44.86,49.27,62.34,80.52S901.77,2417.71,914.89,2451.47Z" class="color40947e svgShape"/><path fill="#1c1c1c" d="M1007.83 2671.25l3-18.45q2.42-14.75 4.82-29.65c12.25-75.76 24.92-154.1 44.68-226.87 22.38-82.42 51-145.91 87.48-194.1 24-31.67 50.62-59.59 76.38-86.59l7.19-7.53zm212.11-545.31c-23.41 24.59-47.26 50.14-68.88 78.69-80.88 106.82-106.56 265.61-131.39 419.17l-1.83 11.26zM982.67 2668.75L708.43 2493.41l4.06-1.33c33.26-10.91 74.64-24.5 118.08-7.3 64.84 26.86 104 93.21 148.5 177.17zM717.81 2494.6L971.87 2657c-42.62-80-81-142.89-142.83-168.5C788.73 2472.58 749.73 2484.18 717.81 2494.6zM988.42 2658.14L802 2144.1l5.59 4.41c50.24 39.7 88.13 98.87 115.83 180.88 24.43 72.35 38.24 153.26 51.59 231.5 5.71 33.48 11.11 65.1 17.3 96.17zM810.74 2156.29l172.78 476.44c-4.29-23.07-8.31-46.62-12.49-71.15-13.33-78.09-27.11-158.84-51.44-230.89C893.2 2252.55 857.55 2195.41 810.74 2156.29z" class="color1c1c1c svgShape"/><path fill="#2e6857" d="M3401,1568.53a71.53,71.53,0,0,1,11.67-9.71c35.14-23.26,70.95-1,97.89,24,60.26,55.83,121.28,139.67,132.34,242.78,12.16,113.4-3.44,238.12-18,356.84-2,16.39-2.86,51-11,72.93-11.09-4.7-22.34-9.14-34-12.27-2.58-15.7-3.71-33.22-5.14-42.63-16.68-109.94-48.08-213.51-98.15-298.5-44.41-75.37-107.83-123.67-110.08-235C3365.87,1632.37,3378.13,1591.88,3401,1568.53Z" class="color2e6857 svgShape"/><path fill="#6fc183" d="M3639.3,2263.28l-12.71-4.36c.11-.24.19-.5.3-.74,2.48-5.44,5.5-10.45,8.23-16.36,4.86-10.56,9.72-20.92,15.32-31.1,12.19-22.22,25.52-43.49,38.48-65.06,20.72-34.49,42.47-68.4,67.77-97.8,25.76-30,55.73-55.11,87.37-65.81,76-25.69,175.38,38.29,172.34,142.47-1,34.36-16.5,73.06-41.75,91.67a71.5,71.5,0,0,1-38.37,13.6,80.59,80.59,0,0,1-48.51-12.08c-35.13-22.07-73.77-53.06-118.1-52.14a71.23,71.23,0,0,0-13.54,1.65c-24.5,5.36-48.14,22.85-69.69,42.08C3668.85,2225,3651.46,2240.94,3639.3,2263.28Z" class="color6fc183 svgShape"/><path fill="#40947e" d="M3729.08,2050.94c-18.64,32.88-35.46,67.24-51.74,101.8-8.07,17.14-41.93,76.42-51.64,107.59l-1.34-.46-10.44-4.51c-1.62-32,12-63,18.43-96.39,24.87-129.55,41.09-275.36,105.72-393.3,37.36-68.18,89.44-128.31,148.42-154s124.23-10.78,153.67,47.08c5.59,11,9.91,23.59,10.33,37.78,1.06,35.06-21.35,70.28-45,95.34-20.19,21.44-42.48,39.25-65.71,52.53-24.27,13.88-49.5,22.81-73.45,38.07-28.32,18-53.39,43.81-76,73.24S3747.59,2018.29,3729.08,2050.94Z" class="color40947e svgShape"/><path fill="#1c1c1c" d="M3600.76 2261.73l-144.66-610 6 8.5c22.38 31.54 45.51 64.16 65.36 100.23 30.19 54.87 50 124.26 60.63 212.13 9.36 77.59 10.62 159.82 11.83 239.34q.24 15.63.5 31.12zm-135.91-590.68l131.23 553.42q-.09-6.24-.19-12.51c-1.21-79.42-2.47-161.54-11.81-238.91-10.54-87.35-30.21-156.26-60.15-210.67C3506 1729.74 3485.25 1699.87 3464.85 1671.05zM3627.25 2263.42l4.55-6.2c58.18-79.43 108.29-141.6 178.75-159.41 47.12-11.13 87.52 9 120 25.16l3.82 1.9zM3838 2098.66a115 115 0 00-26.51 3.08c-67.3 17-116.12 75.88-171.89 151.65l285.27-128.7C3900.16 2112.41 3870.93 2098.66 3838 2098.66zM3622.64 2251.83l-3.69-1.63c11-30.94 21.27-62.56 32.14-96 25.42-78.24 51.69-159.14 87.59-229.67 40.69-80 88.39-134.94 145.85-168.11l6.17-3.57zm257.66-488.21c-54 33.11-99.18 86.42-138 162.72-35.75 70.25-62 151-87.34 229.08-8.07 24.84-15.81 48.66-23.76 71.94z" class="color1c1c1c svgShape"/><ellipse cx="2373.1" cy="2691.9" fill="#7a8db0" rx="1625.34" ry="68.1" class="color7a8db0 svgShape"/><path fill="#2f4171" d="M1846.36,588.73,3259.81,578a81.37,81.37,0,0,1,82,80.74l14.64,1920.76a81.36,81.36,0,0,1-80.74,82l-1413.45,10.78a81.36,81.36,0,0,1-82-80.74L1765.62,670.72A81.38,81.38,0,0,1,1846.36,588.73Z" class="color2f4171 svgShape"/><path fill="#ffffff" d="M1836.9,750.52l11.74,1539.6,264.08,298.82,1092.73-8.33a80.31,80.31,0,0,0,79.69-81L3271.73,739.58a80.33,80.33,0,0,0-80.92-79.73L1916.6,669.57A80.32,80.32,0,0,0,1836.9,750.52Z" class="colorfff svgShape"/><path fill="#b5cae8" d="M2098.16 1068.32a109.9 109.9 0 10109.06 110.73A109.9 109.9 0 002098.16 1068.32zm-1.33 174.49a64.6 64.6 0 1165.09-64.1A64.59 64.59 0 012096.83 1242.81zM2095.56 1408.88a109.9 109.9 0 10109.06 110.73A109.89 109.89 0 002095.56 1408.88zm-1.33 174.49a64.6 64.6 0 1165.09-64.11A64.6 64.6 0 012094.23 1583.37zM2093 1751.47A109.9 109.9 0 102202 1862.21 109.9 109.9 0 002093 1751.47zm-1.33 174.5a64.6 64.6 0 1165.09-64.11A64.61 64.61 0 012091.62 1926z" class="colorb5cae8 svgShape"/><rect width="758.84" height="43.31" x="2365" y="1085.25" fill="#d1dbed" transform="rotate(.44 2723.192 1099.01)" class="colord1dbed svgShape"/><rect width="758.84" height="43.31" x="2364.41" y="1161.49" fill="#d1dbed" transform="rotate(.44 2723.482 1174.535)" class="colord1dbed svgShape"/><rect width="576.59" height="43.31" x="2363.84" y="1237.03" fill="#d1dbed" transform="rotate(.44 2631.313 1249.114)" class="colord1dbed svgShape"/><rect width="758.84" height="43.31" x="2362.4" y="1425.81" fill="#d1dbed" transform="rotate(.44 2720.58 1436.286)" class="colord1dbed svgShape"/><rect width="758.84" height="43.31" x="2361.82" y="1502.05" fill="#d1dbed" transform="rotate(.44 2720.87 1511.812)" class="colord1dbed svgShape"/><rect width="576.59" height="43.31" x="2361.24" y="1577.59" fill="#d1dbed" transform="rotate(.44 2630.003 1586.386)" class="colord1dbed svgShape"/><rect width="758.84" height="43.31" x="2359.79" y="1768.41" fill="#d1dbed" transform="rotate(.44 2717.979 1776.168)" class="colord1dbed svgShape"/><rect width="758.84" height="43.31" x="2359.21" y="1844.64" fill="#d1dbed" transform="rotate(.44 2718.269 1851.694)" class="colord1dbed svgShape"/><rect width="266.79" height="43.31" x="2358.63" y="1919.01" fill="#d1dbed" transform="rotate(.44 2472.439 1925.56)" class="colord1dbed svgShape"/><polygon fill="#5681bf" points="2088.71 1250.47 1993.33 1153.62 2028.35 1119.12 2088.02 1179.7 2224.97 1035.13 2260.66 1068.94 2088.71 1250.47" class="color5681bf svgShape"/><polygon fill="#5681bf" points="2086.26 1572.31 1990.88 1475.46 2025.9 1440.96 2085.57 1501.54 2222.51 1356.97 2258.2 1390.78 2086.26 1572.31" class="color5681bf svgShape"/><polygon fill="#5681bf" points="2083.64 1915.65 1988.26 1818.8 2023.29 1784.31 2082.95 1844.89 2219.9 1700.32 2255.59 1734.13 2083.64 1915.65" class="color5681bf svgShape"/><path fill="#3d5891" d="M2392.69,521.14l.48,63.43L2713,582.13l-.48-63.43c0-1.21,0-2.39-.09-3.57a159.9,159.9,0,0,0-319.71,2.43C2392.67,518.75,2392.68,519.93,2392.69,521.14Z" class="color3d5891 svgShape"/><path fill="#2f4171" d="M2396.79,521.11l.49,63.43,311.61-2.38-.48-63.43c0-1.21,0-2.39-.09-3.57l-311.49,2.37C2396.78,518.71,2396.78,519.89,2396.79,521.11Z" opacity=".26" class="color2f4171 svgShape"/><path fill="#5681bf" d="M2232.31,745.33l644-4.9a33.23,33.23,0,0,0,33-33.48l-1.13-147.32a33.23,33.23,0,0,0-33.47-33l-644,4.91a33.23,33.23,0,0,0-33,33.48l1.12,147.32A33.23,33.23,0,0,0,2232.31,745.33Z" class="color5681bf svgShape"/><path fill="#2f4171" d="M2232.84,702.59l642.28-4.89a30.69,30.69,0,0,0,30.29-31.08l.29,38.29A30.69,30.69,0,0,1,2875.41,736l-642.28,4.89a30.69,30.69,0,0,1-30.77-30.61l-.29-38.29A30.68,30.68,0,0,0,2232.84,702.59Z" opacity=".24" class="color2f4171 svgShape"/><path fill="#99b1da" d="M2266.31 585.7l573.55-4.37a8 8 0 007.92-8h0a8 8 0 00-8-7.92l-573.55 4.37a8 8 0 00-7.92 8h0A8 8 0 002266.31 585.7zM2266.68 634.36L2840.23 630a8 8 0 007.92-8h0a8 8 0 00-8-7.91l-573.55 4.37a8 8 0 00-7.92 8h0A8 8 0 002266.68 634.36zM2267.05 683l573.56-4.37a8 8 0 007.91-8h0a8 8 0 00-8-7.92l-573.55 4.38a8 8 0 00-7.92 8h0A8 8 0 002267.05 683z" class="color99b1da svgShape"/><path fill="#3d5891" d="M2266.26 579l573.55-4.37a8 8 0 007.92-8h0a8 8 0 00-8-7.92L2266.14 563a8 8 0 00-7.92 8h0A8 8 0 002266.26 579zM2266.63 627.64l573.55-4.37a8 8 0 007.92-8h0a8 8 0 00-8-7.91l-573.55 4.37a8 8 0 00-7.92 8h0A8 8 0 002266.63 627.64zM2267 676.3l573.55-4.37a8 8 0 007.92-8h0a8 8 0 00-8-7.92l-573.55 4.38a8 8 0 00-7.92 8h0A8 8 0 002267 676.3z" class="color3d5891 svgShape"/><path fill="#c4c4c4" d="M1848.64,2290.12l264.08,298.82,44.51-.34,40.31-183a102,102,0,0,0-88.89-100.37c-5.56-.73-11.15-1.42-16.71-2.21-19.52-2.66-39.12-4.58-58.78-5.39Z" opacity=".15" class="colorc4c4c4 svgShape"/><path fill="#ededed" d="M1843.93,2290.16l181.46-1.38a80.33,80.33,0,0,1,80.94,79.71L2108,2589Z" class="colorededed svgShape"/><path fill="#3d5891" d="M2408.14,2440.68c-92.35-36.57-137.74-141.46-101.18-233.81s141.45-137.74,233.81-101.17a180.12,180.12,0,0,1,101.17,233.8c-27.8,70.22-95.09,113.28-166.34,113.82A179.13,179.13,0,0,1,2408.14,2440.68ZM2321,2212.43h0c-33.5,84.62,8.08,180.72,92.7,214.23s180.72-8.09,214.23-92.71a165.06,165.06,0,0,0-154.52-225.81C2408.12,2108.63,2346.46,2148.09,2321,2212.43Z" class="color3d5891 svgShape"/><path fill="#3d5891" d="M2379.13 2184.68l9.15-8.14a129.4 129.4 0 01215.15 85.18l1.1 12.2zm29-4.74l178.45 70.66a114.21 114.21 0 00-178.45-70.66zM2426.75 2393.67a128.82 128.82 0 01-56.95-44.14 130.25 130.25 0 01-24.39-65.7l-1-12.11 225.86 89.42-9 8.14a130.25 130.25 0 01-62.75 31.2 128.68 128.68 0 01-71.73-6.81zm-64.6-98.7a114.28 114.28 0 00179.26 71z" class="color3d5891 svgShape"/><rect width="15.09" height="340.36" x="2446.23" y="2148.67" fill="#3d5891" transform="rotate(-68.4 2453.633 2318.827)" class="color3d5891 svgShape"/><rect width="15.09" height="340.36" x="2483.09" y="2055.57" fill="#3d5891" transform="rotate(-68.4 2490.474 2225.717)" class="color3d5891 svgShape"/><path fill="#243354" d="M2215 950.05v-83h-32.9V837.72h103.67v29.37h-32.9v83zM2333.47 950.05H2295.6V837.72h37.87zm37.55-41.4H2330.9V877.52H2371zm-2.57-70.93h37.87V950.05h-37.87zM2461.85 921.49H2518v28.56h-93.39V837.72h91.31v28.56h-54.08zm-2.57-42h50.07v27.28h-50.07zM2580.76 950.05V837.72h37.87v83h50.71v29.36zM2679.77 950.05V837.72h37.87V950.05zM2777.81 952.62a114.71 114.71 0 01-27.28-3.21q-13.16-3.21-21.66-8.34l12.2-27.61a77.49 77.49 0 0017.89 7.47 70 70 0 0019.18 2.8 40.13 40.13 0 008.58-.72 9.79 9.79 0 004.57-2.08 4.35 4.35 0 001.45-3.29q0-3-3.37-4.82a36.68 36.68 0 00-8.91-3q-5.53-1.2-12.11-2.56a115 115 0 01-13.24-3.61 51.73 51.73 0 01-12.2-5.94A27.72 27.72 0 012734 888q-3.37-6-3.38-15a33 33 0 015.86-19q5.87-8.58 17.49-13.72t29-5.14a105.18 105.18 0 0122.47 2.41 71.12 71.12 0 0119.9 7.38l-11.4 27.44a86.67 86.67 0 00-16.13-6.26 58.88 58.88 0 00-15.16-2.08 31.34 31.34 0 00-8.67 1 9.42 9.42 0 00-4.57 2.57 5.33 5.33 0 00-1.36 3.53c0 1.92 1.12 3.45 3.37 4.57a36.12 36.12 0 008.9 2.81q5.53 1.13 12.2 2.41a99.26 99.26 0 0113.24 3.53 52.23 52.23 0 0112.11 5.94 28.09 28.09 0 018.91 9.62q3.38 5.94 3.37 14.77a32.68 32.68 0 01-5.86 18.85q-5.85 8.6-17.41 13.81T2777.81 952.62zM2864.15 950.05v-83h-32.9V837.72h103.67v29.37H2902v83z" class="color243354 svgShape"/><rect width="402.66" height="445.89" x="2731.71" y="2229.25" fill="#f3ce90" transform="rotate(-.28 2887.546 2415.534)" class="colorf3ce90 svgShape"/><rect width="207.91" height="445.91" x="3134.36" y="2227.79" fill="#ef7c59" transform="rotate(-.28 3190.4 2414.228)" class="coloref7c59 svgShape"/><polygon fill="#ffffff" points="2966.59 2327.78 2958.07 2327.82 2951.67 2327.86 2947.97 2320.45 2942.89 2327.9 2935.86 2312.66 2929.34 2327.96 2910.5 2328.05 2901.89 2328.09 2898.74 2317.92 2895.86 2328.12 2890.26 2328.15 2889.8 2231.79 2966.13 2231.42 2966.59 2327.78" class="colorfff svgShape"/><path d="M3328.87,2642.54q-23.32-47.45-46.23-95.2l-45.57-95.69-45-96.11q-22.39-48.14-44.32-96.6,23.32,47.45,46.23,95.2l45.57,95.69,45,96.11Q3306.93,2594.08,3328.87,2642.54Z" fill="#000000" class="color000 svgShape"/><path d="M3327,2258.07q-21.48,48.66-43.39,97l-44.06,96.55-44.65,96.12q-22.43,48-45.31,95.65,21.48-48.67,43.39-97l44.06-96.54,44.65-96.12Q3304.14,2305.74,3327,2258.07Z" fill="#000000" class="color000 svgShape"/><polygon fill="#ffffff" points="2873.64 2391.24 2918.92 2451.66 2891.44 2451.66 2891.44 2548.44 2855.84 2548.44 2855.84 2451.66 2828.36 2451.66 2873.64 2391.24" class="colorfff svgShape"/><polygon fill="#ffffff" points="3056.52 2451.66 3029.04 2451.66 3029.04 2548.44 2993.44 2548.44 2993.44 2451.66 2965.96 2451.66 3011.24 2391.24 3056.52 2451.66" class="colorfff svgShape"/><rect width="243.52" height="4.98" x="2820.68" y="2567.14" fill="#ffffff" class="colorfff svgShape"/><rect width="243.52" height="4.98" x="2820.68" y="2581.97" fill="#ffffff" class="colorfff svgShape"/><rect width="243.52" height="4.98" x="2820.68" y="2596.8" fill="#ffffff" class="colorfff svgShape"/><rect width="402.66" height="445.89" x="3204.55" y="2229.25" fill="#f3ce90" transform="rotate(-.28 3354.102 2414.628)" class="colorf3ce90 svgShape"/><rect width="207.91" height="445.91" x="3607.2" y="2227.79" fill="#ef7c59" transform="rotate(-.28 3656.95 2415.368)" class="coloref7c59 svgShape"/><polygon fill="#ffffff" points="3439.44 2327.78 3430.92 2327.82 3424.51 2327.86 3420.82 2320.45 3415.73 2327.9 3408.7 2312.66 3402.19 2327.96 3383.34 2328.05 3374.74 2328.09 3371.58 2317.92 3368.7 2328.12 3363.11 2328.15 3362.64 2231.79 3438.97 2231.42 3439.44 2327.78" class="colorfff svgShape"/><path d="M3801.71,2642.54q-23.31-47.45-46.23-95.2l-45.57-95.69-45-96.11q-22.38-48.14-44.32-96.6,23.33,47.45,46.24,95.2l45.56,95.69,45,96.11Q3779.79,2594.08,3801.71,2642.54Z" fill="#000000" class="color000 svgShape"/><path d="M3799.86,2258.07q-21.48,48.66-43.39,97l-44.06,96.55-44.64,96.12q-22.44,48-45.32,95.65,21.48-48.67,43.39-97l44.07-96.54,44.64-96.12Q3777,2305.74,3799.86,2258.07Z" fill="#000000" class="color000 svgShape"/><polygon fill="#ffffff" points="3346.48 2391.24 3391.76 2451.66 3364.28 2451.66 3364.28 2548.44 3328.68 2548.44 3328.68 2451.66 3301.2 2451.66 3346.48 2391.24" class="colorfff svgShape"/><polygon fill="#ffffff" points="3529.37 2451.66 3501.88 2451.66 3501.88 2548.44 3466.28 2548.44 3466.28 2451.66 3438.8 2451.66 3484.08 2391.24 3529.37 2451.66" class="colorfff svgShape"/><rect width="243.52" height="4.98" x="3293.52" y="2567.14" fill="#ffffff" class="colorfff svgShape"/><rect width="243.52" height="4.98" x="3293.52" y="2581.97" fill="#ffffff" class="colorfff svgShape"/><rect width="243.52" height="4.98" x="3293.52" y="2596.8" fill="#ffffff" class="colorfff svgShape"/><path fill="#5681bf" d="M3596.43,1450.05H3218V1186.3h378.39Z" class="color5681bf svgShape"/><path d="M3587.54,1470.19H3202.15V1199.44h385.39Zm-378.39-7h371.39V1206.44H3209.15Z" fill="#000000" class="color000 svgShape"/><path fill="#ffffff" d="M3350.51,1293.8a24.32,24.32,0,0,0-4.73-3.86,53.6,53.6,0,0,0-7.23-4,59.16,59.16,0,0,0-9-3.25,52.43,52.43,0,0,0-10.1-1.74l-.12,37,3.39.73a158.67,158.67,0,0,1,17.43,5.24,49.93,49.93,0,0,1,13.12,7,28.4,28.4,0,0,1,8.28,10.14,32.63,32.63,0,0,1,2.91,14.58,35.44,35.44,0,0,1-3.45,16.18,31.58,31.58,0,0,1-9.43,11.15,42.06,42.06,0,0,1-14,6.66,67.7,67.7,0,0,1-17.1,2.36l-.06,18.78-9.3,0,.06-19.14a89.91,89.91,0,0,1-24.49-5.17,77.2,77.2,0,0,1-21.24-11.79l9.18-17.14a32,32,0,0,0,5.7,4.67,65.68,65.68,0,0,0,8.75,4.86,82.6,82.6,0,0,0,11,4.15,71,71,0,0,0,12.42,2.54l.13-37c-.72-.24-1.46-.45-2.24-.63s-1.52-.39-2.23-.63a152.08,152.08,0,0,1-16.53-5.33,41.72,41.72,0,0,1-11.7-6.75,26.28,26.28,0,0,1-7-9.24,30.5,30.5,0,0,1-2.37-12.79,37.54,37.54,0,0,1,3.09-15.56,34,34,0,0,1,8.62-11.68,40.79,40.79,0,0,1,13-7.65,60.09,60.09,0,0,1,16.37-3.44l.06-18.07,9.3,0,0,18.06a69.3,69.3,0,0,1,21.45,4.72,78.21,78.21,0,0,1,17.32,9.54Zm-59.05,4.45q0,7.51,5.24,11.29t16,6.67l.12-35.24q-10.92.51-16.12,5T3291.46,1298.25Zm51.51,59.56q0-7.87-6.23-11.91t-17.5-7.31l-.12,35.42q11.45-.13,17.64-4.23T3343,1357.81Z" class="colorfff svgShape"/><rect width="148.48" height="21.13" x="3407.24" y="1272.02" fill="#ffffff" class="colorfff svgShape"/><rect width="116.7" height="21.13" x="3407.24" y="1318.18" fill="#ffffff" class="colorfff svgShape"/><rect width="130.95" height="21.13" x="3407.24" y="1364.34" fill="#ffffff" class="colorfff svgShape"/><path fill="#b5cae8" d="M1741.16,567.83H1449.65V406.23h291.51Z" class="colorb5cae8 svgShape"/><path d="M1731.75,571.33H1433.24V402.73h298.51Zm-291.51-7h284.51V409.73H1440.24Z" fill="#000000" class="color000 svgShape"/><polygon fill="#ffffff" points="1571.9 470.15 1572.89 491.43 1581.34 491.04 1579.67 455.33 1543.21 457.03 1543.61 465.48 1565.64 464.45 1526.79 507.1 1486.37 470.27 1480.67 476.52 1527.35 519.04 1571.9 470.15" class="colorfff svgShape"/><rect width="103.99" height="16.28" x="1605.96" y="443.33" fill="#ffffff" class="colorfff svgShape"/><rect width="81.74" height="16.28" x="1605.96" y="478.89" fill="#ffffff" class="colorfff svgShape"/><rect width="91.71" height="16.28" x="1605.96" y="514.45" fill="#ffffff" class="colorfff svgShape"/><circle cx="3583.1" cy="897.43" r="193.36" fill="#ffffff" class="colorfff svgShape"/><path d="M3583.1,1094.29c-108.55,0-196.86-88.31-196.86-196.86s88.31-196.85,196.86-196.85S3780,788.89,3780,897.43,3691.64,1094.29,3583.1,1094.29Zm0-386.71c-104.69,0-189.86,85.17-189.86,189.85s85.17,189.86,189.86,189.86S3773,1002.12,3773,897.43,3687.79,707.58,3583.1,707.58Z" fill="#000000" class="color000 svgShape"/><circle cx="3583.1" cy="897.43" r="172.76" fill="#f3ce90" transform="rotate(-45 3583.09 897.436)" class="colorf3ce90 svgShape"/><polygon fill="#f19a6d" points="3714.68 713.39 3696.91 713.39 3581.79 880.14 3507.36 796.32 3489.59 796.32 3491.7 810.23 3445.38 851.35 3576.18 1019.39 3593.54 1019.39 3781.53 762.38 3714.68 713.39" opacity=".33" class="colorf19a6d svgShape"/><polygon fill="#ffffff" points="3576.05 1018.5 3427.62 851.35 3489.59 796.32 3569.87 886.72 3696.91 713.39 3763.76 762.38 3576.05 1018.5" class="colorfff svgShape"/><path d="M3576.31,1024.06l-153.63-173,67.21-59.68,79.72,89.77,126.55-172.66,72.49,53.14ZM3432.56,851.65l143.23,161.28,183.08-249.79-61.2-44.86-127.54,174-80.83-91Z" fill="#000000" class="color000 svgShape"/><path fill="#323232" d="M3576.09,1019.41l-.47-.53L3426.81,851.31l62.83-55.8.39.43,79.8,89.86,127-173.22,67.78,49.68-.34.46Zm-147.66-168L3576,1017.58,3763,762.51,3697,714.19,3569.91,887.63l-80.36-90.5Z" class="color323232 svgShape"/><path fill="#f19a6d" d="M2970.84,1837.58s445.88-4.36,450.9,0,0,390.7,0,390.7h-450.9Z" class="colorf19a6d svgShape"/><path fill="#f3ce90" d="M2970.84,1837.58s81.24-124.52,89.22-127.18,451.08-2.67,449.74,0-88.06,127.18-88.06,127.18Z" class="colorf3ce90 svgShape"/><path fill="#ef7c59" d="M3421.74,1837.58v390.7h154.7s1.79-391.52,0-390.7S3421.74,1837.58,3421.74,1837.58Z" class="coloref7c59 svgShape"/><polygon fill="#a3a3a3" points="3576.44 1837.58 3474.69 1761.41 3421.74 1837.58 3576.44 1837.58" class="colora3a3a3 svgShape"/><path d="M3576.44,1841.08h-154.7a3.51,3.51,0,0,1-2.88-5.5l53-76.17a3.51,3.51,0,0,1,5-.8l101.75,76.17a3.5,3.5,0,0,1-2.1,6.3Zm-148-7h137.49l-90.42-67.69Z" fill="#000000" class="color000 svgShape"/><polygon fill="#ffffff" points="3220.07 1834.02 3143.78 1834.34 3227.21 1711.14 3300.43 1711.68 3220.07 1834.02" class="colorfff svgShape"/><path d="M3561.39,2203.53c-11.31-29.7-21.72-57.37-31.83-84.6l-31.37-85-31-85.41c-9.88-27.41-20.15-56.29-30.52-85.84l.88-.32c11,28.92,21.73,57.39,31.83,84.6l31.37,85,31,85.41c9.87,27.39,19.86,55.47,30.52,85.84Z" fill="#000000" class="color000 svgShape"/><path d="M3561.83,2203.36q-16.07-42.17-31.83-84.6l-31.37-85-31-85.41q-15.42-42.76-30.52-85.83,16.07,42.16,31.83,84.59l31.37,85,31,85.4Q3546.73,2160.3,3561.83,2203.36Z" fill="#000000" class="color000 svgShape"/><path d="M3438.34,2203.8c10.07-29.61,20.06-58.58,29.69-86.13l30.15-85.69,30.55-85.33c9.85-27.33,20-55.11,31-84.91l.88.32c-10.37,30.47-20.09,58.64-29.69,86.12l-30.15,85.7-30.55,85.33c-9.81,27.22-20.24,55.79-31,84.91Z" fill="#000000" class="color000 svgShape"/><path d="M3560.19,1861.91q-14.71,43.18-29.7,86.12l-30.14,85.7-30.55,85.33q-15.35,42.58-31,84.89,14.7-43.2,29.69-86.12l30.16-85.7,30.55-85.32Q3544.52,1904.21,3560.19,1861.91Z" fill="#000000" class="color000 svgShape"/><polygon fill="#ffffff" points="3220.07 1936.76 3211.55 1936.8 3205.15 1936.83 3201.45 1929.43 3196.36 1936.87 3189.34 1921.63 3182.82 1936.94 3163.97 1937.03 3155.37 1937.07 3152.21 1926.89 3149.34 1937.1 3143.74 1937.13 3143.28 1840.77 3219.61 1840.4 3220.07 1936.76" class="colorfff svgShape"/><polygon fill="#ffffff" points="3127.12 1997.45 3172.4 2057.87 3144.92 2057.87 3144.92 2154.66 3109.32 2154.66 3109.32 2057.87 3081.84 2057.87 3127.12 1997.45" class="colorfff svgShape"/><polygon fill="#ffffff" points="3310 2057.87 3282.52 2057.87 3282.52 2154.66 3246.92 2154.66 3246.92 2057.87 3219.44 2057.87 3264.72 1997.45 3310 2057.87" class="colorfff svgShape"/><rect width="243.52" height="4.98" x="3074.16" y="2173.35" fill="#ffffff" class="colorfff svgShape"/><rect width="243.52" height="4.98" x="3074.16" y="2188.18" fill="#ffffff" class="colorfff svgShape"/><rect width="243.52" height="4.98" x="3074.16" y="2203.01" fill="#ffffff" class="colorfff svgShape"/><path fill="#f5b0a6" d="M1133.89,2585.17s42.27-196.07,46.31-322.93l-106.65-15.34S1042.19,2589.52,1040,2600s35.67,27.13,35.67,27.13l44-14.19Z" class="colorf5b0a6 svgShape"/><path fill="#ffffff" d="M1245,2643.43c-67.89-12.25-111.63-66.5-111.63-66.5-53.13,51.56-92.39,14.14-92.39,14.14-23.57,57-12.11,100.81-12.11,100.81s20.51,1.55,60.06,3l-.41-12.87s27.19-1.1,68.11,14.65q18.6.32,39.78.49c109.89.88,128.71-8.12,132.14-16.16S1312.86,2655.68,1245,2643.43Z" class="colorfff svgShape"/><path fill="#2f4171" d="M1232.74,2656.34c-67.89-12.25-96.79-51.47-96.79-51.47-53.12,51.57-95-13.8-95-13.8-23.57,57-12.11,100.81-12.11,100.81s20.51,1.55,60.06,3l-.41-12.87s27.19-1.1,68.11,14.65q18.6.32,39.78.49c109.89.88,128.71-8.12,132.14-16.16S1300.64,2668.59,1232.74,2656.34Z" class="color2f4171 svgShape"/><path d="M1210.91,2700.69c-4.68,0-9.52,0-14.57-.06-13.32-.1-26.71-.27-39.81-.49h-.61l-.58-.22c-31.42-12.09-54.77-14.08-63.24-14.39l.41,13-3.75-.14c-39.17-1.42-60-3-60.19-3l-2.49-.19-.63-2.41c-.48-1.84-11.49-45.57,12.26-103l2-4.72,3.7,3.53a51.92,51.92,0,0,0,24.81,11.41c20.56,3.49,41.67-5.1,62.72-25.54l2.75-2.67,2.41,3c.43.53,43.78,53.39,109.53,65.25,47.24,8.53,78.36,20.89,85.4,33.94,2,3.72,1.51,6.64.75,8.43C1327.64,2691.92,1309.79,2700.69,1210.91,2700.69Zm-53.64-7.54c12.87.22,26,.38,39.13.48,81.28.64,124.64-4.07,128.89-14a3.15,3.15,0,0,0-.48-2.36c-1.09-2-5.31-7.46-20.88-14.14-14.62-6.27-34.67-11.73-59.59-16.23-60.14-10.85-101-53.26-111.29-64.87-15.79,14.55-39.38,29.57-66.45,24.78a60.3,60.3,0,0,1-24.15-10.05c-17.67,45.71-12.57,82.31-10.75,91.84,6.43.43,24.61,1.57,53.57,2.66l-.4-12.6,3.47-.14C1089.48,2678.44,1116.47,2677.56,1157.27,2693.15Z" fill="#000000" class="color000 svgShape"/><path fill="#f5b0a6" d="M1446,2585.17s42.27-196.07,46.31-322.93l-106.65-15.34s-31.36,342.62-33.51,353.14,35.67,27.13,35.67,27.13l44-14.19Z" class="colorf5b0a6 svgShape"/><path fill="#ffffff" d="M1557.09,2643.43c-67.89-12.25-111.63-66.5-111.63-66.5-53.13,51.56-92.39,14.14-92.39,14.14-23.57,57-12.11,100.81-12.11,100.81s20.5,1.55,60.06,3l-.41-12.87s27.19-1.1,68.11,14.65q18.6.32,39.78.49c109.89.88,128.71-8.12,132.14-16.16S1625,2655.68,1557.09,2643.43Z" class="colorfff svgShape"/><path fill="#2f4171" d="M1549.44,2657.63c-67.89-12.25-104.53-53.4-104.53-53.4-53.13,51.56-91.84-13.16-91.84-13.16-23.57,57-12.11,100.81-12.11,100.81s20.5,1.55,60.06,3l-.41-12.87s27.19-1.1,68.11,14.65q18.6.32,39.78.49c109.89.88,128.71-8.12,132.14-16.16S1617.33,2669.88,1549.44,2657.63Z" class="color2f4171 svgShape"/><path d="M1523,2700.69c-4.68,0-9.52,0-14.57-.06-13.32-.1-26.71-.27-39.81-.49H1468l-.57-.22c-31.42-12.09-54.77-14.08-63.24-14.39l.41,13-3.75-.14c-39.17-1.42-60-3-60.19-3l-2.49-.19-.63-2.41c-.48-1.84-11.49-45.57,12.26-103l2-4.72,3.7,3.53A51.86,51.86,0,0,0,1380.3,2600c20.56,3.49,41.66-5.1,62.72-25.54l2.75-2.67,2.41,3c.43.53,43.78,53.39,109.53,65.25h0c47.24,8.53,78.36,20.89,85.39,33.94,2,3.72,1.52,6.64.76,8.43C1639.77,2691.92,1621.92,2700.69,1523,2700.69Zm-53.64-7.54c12.87.22,26,.38,39.12.48,81.28.64,124.65-4.07,128.9-14a3.2,3.2,0,0,0-.48-2.36c-1.09-2-5.31-7.46-20.88-14.14-14.62-6.27-34.67-11.73-59.59-16.23-60.14-10.85-101-53.26-111.29-64.87-15.79,14.55-39.39,29.57-66.45,24.78a60.3,60.3,0,0,1-24.15-10.05c-17.67,45.71-12.57,82.31-10.75,91.84,6.42.43,24.61,1.57,53.57,2.66l-.4-12.6,3.47-.14C1401.61,2678.44,1428.59,2677.56,1469.4,2693.15Z" fill="#000000" class="color000 svgShape"/><path fill="#ffffff" d="M1049.49,1494.69c-8.26,62-5.7,406.46-11.72,457.41s-25.56,234.74-24.21,270,2.22,335.59,2.22,335.59l175.41-.22s52.42-504.86,55.2-571.18S1293,1676,1293,1676s34.25,339.16,36.11,387.69-2.57,488.08-2.57,488.08l170.35,6.54s38.86-442.67,31.68-630.18-41-445-41-445Z" class="colorfff svgShape"/><path fill="#2c4da2" d="M1081.1,1493.86c-8.26,62.05-20.28,406.81-26.3,457.75s-42.59,235.23-41.24,270.53,2.22,335.59,2.22,335.59L1163,2535.84s80.58-483.19,83.36-549.51S1293,1676,1293,1676s58.19,339.3,60,387.83-.94,457-.94,457l126.33,13.62s57.31-418.82,50.13-606.33-56.84-444.55-56.84-444.55Z" class="color2c4da2 svgShape"/><path d="M1500.05,2561.88,1323,2555.09l0-3.41c0-4.39,4.41-440,2.57-487.9-1.53-40.12-25.61-282.77-33.56-362.29-11.18,63.9-39.93,232.19-42.14,285-2.74,65.67-54.69,566.34-55.21,571.39l-.33,3.13-182,.23v-3.49c0-3-.88-300.64-2.22-335.47-1.4-36.6,18.92-225.59,24.23-270.58,2.75-23.2,4.11-122,5.56-226.58,1.75-127.26,3.57-258.86,8.07-292.64l.35-2.66,432.34-56.45.42,3.51c.44,3.63,43.9,365.58,51,551.08s-31.3,626.18-31.69,630.61Zm-170-13.53,163.62,6.28c3.54-41.13,38.14-449.8,31.38-626.41-6.72-175.41-46-509.06-50.54-547l-420,54.84c-4.21,37.48-6,171-7.68,289.16-1.45,104.78-2.82,203.74-5.6,227.3-6.29,53.15-25.5,235.24-24.19,269.5,1.26,32.89,2.11,298.47,2.21,332.21L1188,2554c4.44-42.82,52.23-505.09,54.86-567.82,2.75-65.8,46.2-308.41,46.64-310.85l4.41-24.61,2.51,24.87c.35,3.39,34.29,339.82,36.13,387.91C1334.33,2109.31,1330.45,2507.2,1330,2548.35Z" fill="#000000" class="color000 svgShape"/><polygon fill="#2c4da2" points="1456.42 1413.8 1049.76 1450.4 1071.12 1644.96 1214.19 1688.14 1307.58 1690.64 1504.92 1635.13 1456.42 1413.8" class="color2c4da2 svgShape"/><path d="M1053.49 2553h0a2.5 2.5 0 002.68-2.3c-.06-3.55-7-356.27 16.24-436.44 23.38-80.66 39.81-495 40-499.23a2.49 2.49 0 00-2.64-2.33h-.08a2.54 2.54 0 00-2.72 2.19c-.17 4.16-16.58 418.09-39.81 498.31-23.42 80.72-16.47 434-16.41 437.57A2.53 2.53 0 001053.49 2553zM1292 1689.39a2.18 2.18 0 01-1.61-2.9c13.88-31.72 35.94-83.7 36.09-88.14 0-6 5.23-137.63 5.44-143.23a2.54 2.54 0 012.61-2.19l43.53-1.5h.11a3 3 0 011.91.66 2.06 2.06 0 01.81 1.69l-5.44 123.56a2.12 2.12 0 01-1 1.66l-39.9 27.12a3.06 3.06 0 01-3.82-.31 2 2 0 01-.58-1.08c-6.58 18.91-29.45 71.43-34.66 83.31a2.75 2.75 0 01-2.55 1.49A3.06 3.06 0 011292 1689.39zm83.34-233.33l-38.06 1.31c-.69 17.3-5.36 135.47-5.36 141a19.72 19.72 0 01-1.15 4.56c.11-.11.21-.19.21-.19l39.07-26.56z" fill="#000000" class="color000 svgShape"/><path fill="#ffffff" d="M729.88,849.58C833,777.12,870.3,948,880.06,945.58c20-5,65.4-73.09,132.91-165.5a68.88,68.88,0,0,1,10.61-11.72c27.71-43.7,75.85-40,127-56.26a180.23,180.23,0,0,0,44.85-20.85c75.81-49.47,116.51,2.25,116.51,2.25s12,3,28.79,8c30.94,9.1,78.33,24.77,97.93,40.18,98,56.39,120.49,81,140.36,75.43,9.69-2.71-37.32-141.8,87.17-139.39,88.32,1.7,85.47,89.42,49.49,179.9s-20.9,163.12-95.61,176.34c-54.62,9.66-117.27-4.5-155.51-16,0,21.79.22,41.29,1,56.71q.32,6.07.75,11.27c6.68,77.81,29,236.75,23.34,289-13,120.81-437.61,100-446.86,57.16-23.73-109.81-2.56-261.92-6.47-374.39,0-.26,0-.51,0-.76-30.06,29.76-66.76,62.29-100.84,82.24-63.82,37.35-87.65,6.11-166.38-83C705.07,983.77,669.48,892,729.88,849.58Z" class="colorfff svgShape"/><path fill="#6fc183" d="M729.88,849.58C833,777.12,885.1,968.7,894.85,966.26c20-5,61.68-74.86,129.19-167.27a68.47,68.47,0,0,1,10.61-11.72c27.71-43.7,64.78-58.88,115.95-75.17a180.23,180.23,0,0,0,44.85-20.85c75.81-49.47,116.51,2.25,116.51,2.25s12,3,28.79,8c30.94,9.1,72.26,37,91.86,52.44,98,56.38,117.58,94.74,137.45,89.19,9.69-2.7-28.34-167.82,96.15-165.41,88.32,1.7,85.47,89.42,49.49,179.9s-33.9,144.7-108.61,157.92c-54.62,9.66-99.76-9-138-20.55,0,21.8-4.29,64.23-3.49,79.65q.32,6.07.75,11.27c6.68,77.81,29,236.75,23.34,289-13,120.81-415.16,84.31-424.41,41.51-23.73-109.81-25-246.27-28.92-358.74,0-.26,0-.51,0-.76-30.06,29.76-66.76,62.29-100.84,82.24-63.82,37.35-87.65,6.11-166.38-83C705.07,983.77,669.48,892,729.88,849.58Z" class="color6fc183 svgShape"/><path d="M1227.08,1469.14c-38.48,0-76.61-2.38-109.21-7-33.92-4.76-75.08-13.71-78.46-29.36-15.46-71.55-12-159.83-8.7-245.2,1.7-43.63,3.32-85,2.36-122.6-36,35-68.19,61-95.83,77.17-31.75,18.58-54.47,20.75-78.42,7.49-23.3-12.91-47.37-40.19-83.81-81.49l-8.54-9.67c-49.26-55.74-75.62-114.92-70.51-158.3,2.65-22.5,13.39-40.51,31.91-53.52,23.57-16.56,45.93-22.06,66.46-16.35,41.31,11.48,65.2,65.54,78,94.58,3,6.76,6.33,14.32,8.13,16.83,15.73-6.07,50.59-54.4,94.41-115.13,11.17-15.49,22.72-31.5,35.24-48.62a72.82,72.82,0,0,1,10.75-12c21-32.68,53.65-39.72,88.23-47.16,13.1-2.82,26.65-5.74,40.41-10.12a177.7,177.7,0,0,0,44-20.45c22.27-14.53,55.91-29.42,89.73-17.8a73.56,73.56,0,0,1,30.64,19.87c3.34.86,14,3.67,27.83,7.75,34.3,10.09,79.25,25.31,98.9,40.62,35.5,20.42,61.33,36.83,80.21,48.82,31.43,19.95,45.09,28.63,56,26.43.34-2.57-.24-9.29-.75-15.29C1574,773.47,1570,726.46,1596.6,698c15.34-16.39,38.78-24.4,69.68-23.8,29.41.57,50.72,10.48,63.34,29.47,20.6,31,16.81,86.13-10.67,155.22-11.09,27.89-17.33,54.23-22.83,77.47-6.2,26.19-11.56,48.82-22,66.25-11.61,19.33-28.57,30.38-53.4,34.78-29.21,5.17-79.22,6.69-152.62-14.79,0,16.53.21,36.29,1,51.84.23,4.22.47,7.87.75,11.15,2,22.67,5.25,52.51,8.75,84.11,8.72,78.84,18.61,168.19,14.58,205.59-3.08,28.58-27.54,51.31-72.7,67.57-36.92,13.29-87.39,22-145.94,25C1258.9,1468.73,1243,1469.14,1227.08,1469.14Zm-187.56-420.29.33,8.72c1.39,39.77-.33,83.76-2.14,130.34-3.31,84.93-6.73,172.75,8.55,243.44,1.41,6.53,21.26,16.71,72.58,23.91,45.63,6.39,102.24,8.46,155.32,5.66,57.88-3.05,107.65-11.57,143.94-24.64,42.42-15.27,65.34-36,68.11-61.73,4-36.64-5.9-125.59-14.58-204.07-3.5-31.64-6.81-61.53-8.76-84.28-.29-3.36-.54-7.09-.77-11.39-.89-17.21-1-39.44-1-56.89v-4.72l4.52,1.36c74.55,22.49,124.83,21.09,153.89,15.94,49.22-8.7,57.42-43.33,69.83-95.75,5.56-23.47,11.86-50.08,23.14-78.44,26.6-66.89,30.63-119.73,11.34-148.76-11.27-17-30.66-25.82-57.65-26.34-28.84-.56-50.5,6.7-64.43,21.59-24.5,26.17-20.66,71.15-18.59,95.32,1.26,14.83,1.79,21-3.14,22.35-14.17,3.95-28.43-5.1-62.88-27-18.86-12-44.69-28.38-80.16-48.78l-.42-.29c-19.65-15.45-69.06-31.42-96.76-39.57-16.55-4.89-28.54-7.92-28.66-8l-1.16-.3-.74-.93c-.09-.12-10-12.39-28.55-18.65-24.93-8.41-53-2.63-83.29,17.16a184,184,0,0,1-45.7,21.26c-14.07,4.48-27.79,7.43-41.05,10.29-34.71,7.47-64.69,13.93-84.07,44.51l-.29.44-.4.34a65.67,65.67,0,0,0-10,11.13c-12.5,17.11-24,33.11-35.21,48.58-51.23,71-82.14,113.86-99.68,118.25-5,1.25-7.72-4.86-14.94-21.21-12.37-28-35.4-80.07-73.51-90.67-18.41-5.12-38.79,0-60.57,15.34l-2-2.86,2,2.86c-16.82,11.82-26.57,28.17-29,48.61-4.88,41.43,20.84,98.57,68.81,152.84q4.38,5,8.54,9.68c36,40.75,59.71,67.68,82,80,21.75,12,41.8,10,71.5-7.41,28.58-16.73,62.28-44.22,100.15-81.71Z" fill="#000000" class="color000 svgShape"/><path d="M1352.33 789.77c-12.09 27.27-50.3 25.78-74.2 24.4a236.49 236.49 0 01-99.21-28.72c-2.72-1.48-.3-5.75 2.42-4.28a231.17 231.17 0 0091.23 27.6c23.2 1.92 63.78 5.27 75.69-21.61 1.29-2.9 5.35-.28 4.07 2.61zM1436.38 1291.73c-7.07 20.27-29 25.34-47.41 25.82-30.5.8-60.71-7-89.71-16.72a776.3 776.3 0 01-164.67-78c-2.64-1.65-.23-5.93 2.41-4.28a775.48 775.48 0 00149.55 72.66c26.54 9.49 53.77 18 81.72 20.62 20.35 1.88 54.81 3.57 63.55-21.49 1-3 5.61-1.6 4.56 1.42z" fill="#000000" class="color000 svgShape"/><path fill="#ffffff" d="M1150.6,712.1c20,27.54,72.92,62.22,118.73,58.09,63.87-5.75,81.66-41.58,71.42-68.7-16.82-5-28.79-8-28.79-8s-40.7-51.72-116.51-2.25A180.23,180.23,0,0,1,1150.6,712.1Z" class="colorfff svgShape"/><path d="M1261.6 774c-45.9 0-94.76-33.67-113.83-59.87l-2.85-3.92 4.63-1.47a177.79 177.79 0 0044-20.45c22.27-14.53 55.91-29.41 89.73-17.8a73.56 73.56 0 0130.64 19.87c3.34.86 14 3.67 27.83 7.75l1.67.49.61 1.63a44.69 44.69 0 01-4.07 39.82c-11.68 18.63-36.65 30.57-70.31 33.6C1267 773.92 1264.29 774 1261.6 774zm-105.19-60.15c20.8 25.22 69.86 56.67 112.6 52.83 31.43-2.83 54.51-13.61 65-30.35a37.17 37.17 0 004-32c-15.65-4.6-26.83-7.42-26.94-7.45l-1.16-.3-.74-.93c-.09-.12-10-12.39-28.55-18.65-24.93-8.41-53-2.63-83.29 17.16A181.23 181.23 0 011156.41 713.88zM1466.33 804.33a947.3 947.3 0 011.29 206.15c-.33 3.17-5.06 3.11-4.73-.09a947.93 947.93 0 00-1.29-206.15c-.38-3.19 4.36-3.07 4.73.09z" fill="#000000" class="color000 svgShape"/><path fill="#40947e" d="M718.61,901.71c8,14.94,33.13,16,56.18,2.41s35.27-36.74,27.29-51.67S769,836.43,745.9,850,710.63,886.78,718.61,901.71Z" class="color40947e svgShape"/><path d="M884.27,947.62a466.84,466.84,0,0,1,39.42,72.87c1.26,2.93-2.83,5.4-4.1,2.45a466.84,466.84,0,0,0-39.42-72.87c-1.76-2.66,2.36-5.09,4.1-2.45Z" fill="#000000" class="color000 svgShape"/><path d="M898.64 970.89c16.38 2.78 30.39 12.17 40.2 26.35 1.81 2.62-2.3 5-4.1 2.45a56.55 56.55 0 00-37.38-24c-3-.51-1.7-5.31 1.28-4.8zM1065.11 754.55c47.52 28.15 77.87 83.66 77.18 141a2.37 2.37 0 11-4.73-.1c.67-55.65-28.76-109.31-74.86-136.62-2.67-1.59-.26-5.87 2.41-4.28z" fill="#000000" class="color000 svgShape"/><path fill="#9b9b9b" d="M746 835.88a23.65 23.65 0 00-16.18 3.65c-2.6 1.67-5-2.71-2.37-4.37a27.66 27.66 0 0118.58-4.29c3 .37 3 5.39 0 5zM700.48 835.86l-16.89-6.71c-2.85-1.13-1.59-5.95 1.28-4.81l16.89 6.71c2.84 1.13 1.59 6-1.28 4.81z" class="color9b9b9b svgShape"/><path fill="#f5b0a6" d="M661.26,835.19c.49-11.76,13.19-8.28,13.19-8.28s-14.28-9.12-12.26-20S676,796.23,676,796.23s-9.9-10-5.61-21.72,20.75-14,20.75-14-6.59-17,7.87-24,69,36.88,69,36.88c5.64-41.1,19.73-48.14,24.57-40.73s-6.67,44.71,1.22,67.89c5.23,15.34,1.15,24.89-4.78,30.75l11.13,45.13c-4.37,15.73-24.33,35.39-59.45,37.15l-21.84-44.25c-.89-.14-1.78-.29-2.7-.47C671.32,860.06,660.77,846.94,661.26,835.19Z" class="colorf5b0a6 svgShape"/><path d="M748.34,759.26c5.31,15.24-6.73,27.17-21.09,24.24.62-1.51,1.23-3,1.85-4.54a18.25,18.25,0,0,1,6.82,23.88c-4.8,9.34-15.29,11.61-24.18,7.76l2.33-4.14c12.12,11.68,4.88,34.71-12.78,29.51l2.69-3.63c4.58,6.58,7.17,15.13,3.22,22.7a12.52,12.52,0,0,1-16.57,6c-2.78-1.24-1.53-6.07,1.29-4.81,6.44,2.88,12-1.68,12.51-8.7.33-4.85-1.95-9-4.55-12.7-1.3-1.86.87-4.17,2.69-3.63,13.46,4,16.4-13.26,8.13-21.22-1.69-1.64.12-5.1,2.33-4.15,5.56,2.42,12,2.49,16.51-2.26,5.83-6.17,4.07-15.93-2.85-20.29-2.44-1.54-.68-5.06,1.85-4.54,11,2.24,19.16-6.93,15.23-18.2-1.06-3,3.52-4.26,4.57-1.24Z" fill="#000000" class="color000 svgShape"/><path d="M742.65 799.51c-.51 21.35 9.31 41.39 26.26 53.25 2.54 1.78.15 6.08-2.42 4.28-18.33-12.83-29.12-34.46-28.58-57.62a2.37 2.37 0 114.74.09zM729.52 785.43A231 231 0 00705 770c-2.73-1.48-.31-5.76 2.41-4.28a231.09 231.09 0 0124.52 15.42c2.52 1.82.13 6.11-2.42 4.28zM712.42 811.33l-21.46-13c-2.66-1.61-.25-5.89 2.41-4.28l21.46 13c2.66 1.61.25 5.89-2.41 4.28z" fill="#000000" class="color000 svgShape"/><rect width="138.76" height="1113.12" x="1323.6" y="117.69" fill="#99b1da" transform="rotate(-72.37 1392.942 674.251)" class="color99b1da svgShape"/><rect width="9.25" height="1113.13" x="1400.73" y="78.74" transform="matrix(.3 -.95 .95 .3 374.22 1782.21)" fill="#000000" class="color000 svgShape"/><rect width="9.25" height="1113.12" x="1388.35" y="117.68" transform="rotate(-72.37 1392.937 674.258)" fill="#000000" class="color000 svgShape"/><rect width="9.25" height="1113.12" x="1375.98" y="156.62" transform="rotate(-72.37 1380.557 713.186)" fill="#000000" class="color000 svgShape"/><rect width="138.76" height="58.21" x="820.92" y="485.38" fill="#3d5891" transform="rotate(-72.37 890.261 514.483)" class="color3d5891 svgShape"/><path fill="#5681bf" d="M832,423.73l51.63,15.82-42,132.23L791,556.29a43.56,43.56,0,0,1-28.79-54.7l15.48-49.28A43.56,43.56,0,0,1,832,423.73Z" class="color5681bf svgShape"/><polygon fill="#b5cae8" points="1902.38 908.95 1944.41 776.71 2020.71 844.21 2036.59 858.24 2081.43 897.91 2020.36 901.67 1996.57 903.14 1902.38 908.95" class="colorb5cae8 svgShape"/><path fill="#243354" d="M2020.36,901.67a72.13,72.13,0,0,1,3.62-22c3.16-9.94,7.77-16.75,12.61-21.41l44.84,39.67Z" class="color243354 svgShape"/><path fill="#f5b0a6" d="M1662.35 696.35s-8.5 55.9 2.15 65.88S1691.8 717 1691.8 717s-4.18 33.14 2.89 42.33 23.72-30.87 23.72-30.87-1.89 22.25 10.2 24.25 17.28-6 21.45-18.07.44-24.69-4-30-17.24-2.36-17.24-2.36-8.44-22.14-16.44-23.69-14 3.73-14 3.73-.64-10.14-10-14.65-15.65-.38-15.65-.38-17.22-10.2-27.46-13.9-20.33 14.07-28 24.69 13.46 33.08 15.79 52c0 0 4.88 10 12.94.55s-.5-32.16.36-36.84S1662.35 696.35 1662.35 696.35zM1398.27 536.51c-1.5 7.92-22.5 20.06-22.5 20.06s3.51 15.9-.3 46.19-63.9 29.87-63.9 29.87l6.08 86.79c-47.06 53-127.94-2.35-127.94-2.35s2.08-8.1 3.22-83-29-187.08-32-199.81 3.6-15.54 3.6-15.54c48.82 5.8 37.82-20.57 59.43-41.9s50.48-13.47 55.91-6.87 14.4 10.61 34.61 2.19 56.09-.52 58.73 31.05-19.54 41.74-19.54 41.74c11.53 13.43 19 33 19.59 54.62S1399.77 528.58 1398.27 536.51z" class="colorf5b0a6 svgShape"/><path d="M1353.66 444.91s-18.84 4.1-31-.2c-28.44-10.07-56.87 15-49.77 20s32.07 71.47 8.47 79.68-21.55-20.9-28.32-28.68-29.34-13.83-36 10.3 8.57 36.3 24.78 36.41 7.23 15.85-.15 23.55-48.71 48.11-48.71 48.11c1.14-74.93-29-187.08-32-199.81s3.6-15.54 3.6-15.54c48.82 5.8 37.82-20.57 59.43-41.9s50.48-13.47 55.91-6.87 14.4 10.61 34.61 2.19 56.09-.52 58.73 31.05S1353.66 444.91 1353.66 444.91zM1359.5 503.19c0 5.35-2.5 9.67-5.5 9.65s-5.42-4.37-5.39-9.72 2.5-9.66 5.51-9.64S1359.54 497.85 1359.5 503.19zM1362.5 584.62c-3.47 0-8.88-1-15.26-5.93-10.81-8.27-8.47-28.8-8.37-29.67l1.06-8.78L1371 582.5l-4.48 1.56A13 13 0 011362.5 584.62zm-16.61-24.47c.59 5 2.13 10.32 5.61 13a23.51 23.51 0 006.67 3.71z" fill="#000000" class="color000 svgShape"/><path fill="#ffffff" d="M1286.81,625.39s15.36,7.59,30.73,6.6Z" class="colorfff svgShape"/><path d="M1314.7,635.58c-15,0-28.82-6.75-29.44-7.05L1260,616.05l82.86,17.81-25.13,1.62C1316.74,635.55,1315.72,635.58,1314.7,635.58Z" fill="#000000" class="color000 svgShape"/></g></svg>